<svg width="1200" height="1500" viewBox="0 0 1200 1500" fill="none" xmlns="http://www.w3.org/2000/svg">
<g clip-path="url(#clip0)">
<g clip-path="url(#clip1)">
<path d="M451.081 1500.01H1200V750.987L451.081 750.987L451.081 1500.01Z" fill="#FFC89E"/>
<path d="M756.284 283.13C734.443 275.191 731.637 275.111 726.128 252.534C722.199 236.429 720.745 237.964 716.221 232.442C710.597 225.57 717.366 218.834 720.596 213.954C725.177 207.082 725.83 203.645 725.99 196.956C727.033 153.955 747.041 130.518 783.256 126.624L805.337 144.218L847.542 188.193C884.639 252.752 851.482 260.415 852.948 300.323C853.051 303.359 850.806 321.721 850.806 321.721L767.072 346.497C794.72 298.559 760.132 284.527 756.284 283.13Z" fill="#8B5344"/>
<path d="M890.972 706.554L863.496 611.514L829.32 596.726L795.911 601.502L833.512 699.188L823.147 716.645L890.972 706.554Z" fill="#7D4A3D"/>
<path d="M860.965 320.586C845.034 307.654 828.896 292.179 820.879 277.929C805.738 251.205 822.128 248.399 836.788 228.021C854.803 202.992 825.506 177.391 801.935 202.156C796.026 208.364 789.211 210.174 778.262 203.198C761.563 192.5 748.358 178.101 739.928 167.414C736.164 162.666 734.33 156.672 734.793 150.63C735.256 144.588 737.981 138.944 742.425 134.825C772.478 106.761 830.408 111.973 858.548 133.68C885.578 154.493 893.343 197.895 899.115 232.03C914.291 321.629 974.706 339.876 957.755 409.658C953.025 429.131 864.893 430.804 844.976 432.98L860.965 320.586Z" fill="#1E2221" stroke="#1E2221" stroke-width="12.0733" stroke-linecap="round" stroke-linejoin="round"/>
<path d="M892.587 688.593L905.185 746.256H724.123C729.14 700.677 766.603 733.438 818.554 679.75C828.782 699.245 862.362 713.003 892.587 688.593Z" fill="black" stroke="black" stroke-width="10.3979" stroke-linecap="round" stroke-linejoin="round"/>
<path d="M857.884 706.554L830.408 611.514L796.232 596.726L762.823 601.502L800.424 699.188L790.059 716.645L857.884 706.554Z" fill="#8B5344"/>
<path d="M859.854 688.547L873.197 746.256H691.092C696.109 700.677 734.82 733.438 786.772 679.75C797.022 700.574 829.549 714.538 859.854 688.547Z" fill="#1E2221" stroke="#1E2221" stroke-width="10.3979" stroke-linecap="round" stroke-linejoin="round"/>
<path d="M1017.45 541.594C1027.76 572.155 1029.33 639.189 971.167 668.02C913.008 696.852 848.286 632.132 825.495 609.337H745.861C745.861 609.337 717.744 520.77 709.005 492.499C700.266 464.229 708.123 435.592 732.759 424.996L801.409 422.27L1017.45 541.594Z" fill="#B8B6A8" stroke="#B8B6A8" stroke-width="12.1571" stroke-linecap="round" stroke-linejoin="round"/>
<path d="M565.131 327.54C634.521 327.54 690.772 271.28 690.772 201.881C690.772 132.482 634.521 76.2228 565.131 76.2228C495.742 76.2228 439.49 132.482 439.49 201.881C439.49 271.28 495.742 327.54 565.131 327.54Z" fill="#FF6B18"/>
<path d="M644.73 369.647L611.207 328.078L531.642 327.551C528.972 327.542 526.399 328.553 524.448 330.377C522.498 332.201 521.318 334.701 521.148 337.366C520.979 340.032 521.833 342.661 523.536 344.718C525.239 346.775 527.664 348.103 530.313 348.433L590.774 355.787L614.116 388.525L644.73 369.647Z" fill="#572F20"/>
<path d="M609.638 357.666L585.311 317.574C584.178 315.726 583.798 313.513 584.252 311.393C584.705 309.273 585.957 307.408 587.747 306.186C589.538 304.964 591.73 304.477 593.869 304.827C596.008 305.177 597.931 306.337 599.238 308.067L633.38 352.683L609.638 357.666Z" fill="#572F20"/>
<path d="M600.739 380.816L665.197 486.279C668.193 491.177 672.184 495.392 676.911 498.65C681.639 501.907 686.998 504.136 692.641 505.191C698.284 506.246 704.086 506.104 709.671 504.774C715.256 503.444 720.5 500.956 725.062 497.47L795.888 443.347L897.821 556.554C905.158 564.699 914.901 570.292 925.634 572.521C936.367 574.75 947.53 573.498 957.503 568.948L1023.93 538.627C1023.93 538.627 982.895 413.404 904.716 346.188C879.29 324.332 856.796 312.499 838.448 306.302C825.651 301.983 811.815 301.824 798.922 305.849C786.029 309.873 774.74 317.875 766.671 328.708L694.975 424.87L642.291 352.706L600.739 380.816Z" fill="white" stroke="white" stroke-width="11.2461" stroke-linecap="round" stroke-linejoin="round"/>
<path d="M680.555 1040.99L451.081 1500H910.041L680.555 1040.99Z" fill="#35324A"/>
<path d="M451.081 1500C451.081 1375.43 350.099 1274.43 225.546 1274.43C100.994 1274.43 0 1375.43 0 1500H451.081Z" fill="#FAB4BB"/>
</g>
</g>
<defs>
<clipPath id="clip0">
<rect width="1200" height="1500" fill="white"/>
</clipPath>
<clipPath id="clip1">
<rect width="1200" height="1427.23" fill="white" transform="translate(0 72.7749)"/>
</clipPath>
</defs>
</svg>
