<svg width="1200" height="1500" viewBox="0 0 1200 1500" fill="none" xmlns="http://www.w3.org/2000/svg">
<g clip-path="url(#clip0)">
<g clip-path="url(#clip1)">
<path d="M583.232 756.389L675.987 783.738L694.346 737.739L583.232 684.392V756.389Z" fill="#FAC1AA"/>
<path d="M469.87 521.307C485.515 467.215 449.933 446.129 461.234 378.412L514.354 326.214L541.981 305.469C586.06 311.567 612.462 340.697 609.154 394.145C608.725 401.09 609.937 408.552 614.811 414.853C619.205 420.535 626.592 428.742 620.48 436.987C615.253 444.071 608.839 442.038 604.546 457.682C600.151 473.566 595.707 482.935 569.052 490.978C547.183 497.595 545.579 520.019 565.264 552.773L469.87 521.307Z" fill="#FAC1AA"/>
<path d="M581.073 1448.1C581.11 1446.86 581.418 1445.65 581.974 1444.54C582.53 1443.43 583.321 1442.46 584.291 1441.69C585.262 1440.93 586.389 1440.38 587.593 1440.09C588.797 1439.8 590.049 1439.78 591.262 1440.03C607.993 1443.46 641.036 1448 651.289 1433.19C652.328 1431.69 653.663 1430.42 655.211 1429.46C656.76 1428.5 658.489 1427.87 660.292 1427.6C663.941 1427.07 667.628 1423.98 670.393 1426.34C714.738 1464.39 758.047 1443.19 775.08 1495.65H579.697L581.073 1448.1Z" fill="#1E2221" stroke="#1E2221" stroke-width="12.5382" stroke-linecap="round" stroke-linejoin="round"/>
<path d="M477.042 1495.67H363.858L298.263 1456.24L325.448 1408.26L397.722 1427.69C421.182 1465.98 468.128 1449.55 477.042 1495.67Z" fill="#1E2221" stroke="#1E2221" stroke-width="12.5382" stroke-linecap="round" stroke-linejoin="round"/>
<path d="M418.202 888.4C415.286 996.572 448.973 1032.34 456.953 1111.89C459.85 1140.66 453.602 1169.61 439.099 1194.62L309.601 1418.69C309.601 1418.69 375.575 1439.66 429.238 1433.01L542.549 1241.21C571.161 1182.51 573.749 1173.32 584.482 1123.94L607.096 922.832L418.202 888.4Z" fill="#A6A497" stroke="#A6A497" stroke-width="14.9877" stroke-linecap="round" stroke-linejoin="round"/>
<path d="M418.203 888.4C404.806 1012.95 514.796 1014.96 534.834 1147.67C549.986 1248.28 573.977 1458.29 573.977 1458.29C609.647 1458.75 647.552 1454.12 681.719 1427.52L658.246 1171.34C657.312 1161.08 656.146 1150.85 654.749 1140.64L620.657 891.405C548.686 898.728 418.203 888.4 418.203 888.4Z" fill="#B8B6A8" stroke="#B8B6A8" stroke-width="14.9877" stroke-linecap="round" stroke-linejoin="round"/>
<path d="M788.237 951.482L645.582 895.559L622.677 744.053L742.44 648.47L885.108 704.393L908 855.899L788.237 951.482Z" fill="#872345"/>
<path d="M639.711 910.307H404.856C404.856 910.307 405.185 584.314 473.103 486.95C473.103 486.95 533.294 501.559 564.898 546.295C607.096 606.095 639.711 910.307 639.711 910.307Z" fill="white" stroke="white" stroke-width="15.2529" stroke-linecap="round" stroke-linejoin="round"/>
<path d="M473.671 471.533C473.671 471.533 398.189 402.718 438.721 334.144C475.338 272.273 569.759 281.655 602.614 329.093C612.412 343.222 576.009 349.081 566.678 349.876C556.261 350.773 542.612 361.859 548.016 381.215C552.6 397.63 534.657 407.453 524.215 389.827C510.402 366.518 456.638 378.097 491.954 439.575C503.596 459.841 473.671 471.533 473.671 471.533Z" fill="#1E2221" stroke="#1E2221" stroke-width="15.114" stroke-linecap="round" stroke-linejoin="round"/>
<path d="M430.703 414.726C394.717 305.873 537.334 240.303 603.687 324.106L655.86 321.58C655.86 321.58 646.68 351.013 556.779 353.841C476.209 402.087 430.703 414.726 430.703 414.726Z" fill="#B8B6A8" stroke="#B8B6A8" stroke-width="15.114" stroke-linecap="round" stroke-linejoin="round"/>
<path d="M549.38 741.502L651.352 773.068C653.654 773.78 656.051 774.138 658.461 774.129L706.985 774.003L743.476 804.963C744.736 806.035 745.752 807.364 746.456 808.861C747.16 810.358 747.536 811.988 747.557 813.643C747.579 815.297 747.246 816.937 746.581 818.452C745.916 819.966 744.935 821.322 743.703 822.426L713.399 849.484C710.532 852.06 706.901 853.628 703.06 853.949C699.22 854.271 695.379 853.328 692.123 851.265L653.928 827.173C649.726 824.52 644.881 823.058 639.913 822.943L537.208 820.582L549.38 741.502Z" fill="#FAC1AA"/>
<path d="M650.241 774.016L720.874 761.389C723.161 760.994 725.511 761.514 727.418 762.837C729.324 764.16 730.634 766.18 731.064 768.46L731.228 769.369C731.478 770.704 731.462 772.075 731.18 773.404C730.899 774.733 730.358 775.993 729.589 777.112C728.819 778.232 727.836 779.188 726.696 779.926C725.556 780.664 724.281 781.17 722.945 781.415L658.436 793.208L650.241 774.016Z" fill="#FAC1AA"/>
</g>
</g>
<defs>
<clipPath id="clip0">
<rect width="1200" height="1500" fill="white"/>
</clipPath>
<clipPath id="clip1">
<rect width="616" height="1223.45" fill="white" transform="translate(292 278.498)"/>
</clipPath>
</defs>
</svg>
