<?xml version="1.0" encoding="utf-8"?>
<!-- Generator: Adobe Illustrator 26.1.0, SVG Export Plug-In . SVG Version: 6.00 Build 0)  -->
<svg version="1.1" id="Capa_1" xmlns="http://www.w3.org/2000/svg" xmlns:xlink="http://www.w3.org/1999/xlink" x="0px" y="0px"
	 viewBox="0 0 90.07 24.39" style="enable-background:new 0 0 90.07 24.39;" xml:space="preserve">
<style type="text/css">
	.st0{fill:#53BB71;}
	.st1{fill:#231F20;}
</style>
<g>
	<polygon class="st0" points="14.13,18.63 8.28,18.63 7.66,20.54 14.75,20.54 	"/>
	<polygon class="st1" points="11.7,4.23 14.51,4.23 19.5,19.59 16.69,19.59 	"/>
	<polygon class="st1" points="10.71,4.23 7.9,4.23 2.91,19.59 5.72,19.59 	"/>
	<polygon class="st1" points="84.31,4.23 73.46,4.23 73.46,6.49 77.62,6.49 77.62,19.59 80.15,19.59 80.15,6.49 84.31,6.49 	"/>
	<polygon class="st1" points="58.29,4.23 58.29,19.59 68.14,19.59 68.14,17.33 60.82,17.33 60.82,12.97 67.1,12.97 67.1,10.71 
		60.82,10.71 60.82,6.49 68.14,6.49 68.14,4.23 	"/>
	<polygon class="st1" points="31.96,4.23 28.37,15.71 24.78,4.24 24.78,4.23 21.97,4.23 26.96,19.59 29.78,19.59 34.77,4.23 	"/>
	<polygon class="st1" points="42.19,4.23 40.03,4.23 40.03,19.59 42.57,19.59 42.57,9.32 49.49,19.59 51.65,19.59 51.65,4.23 
		49.12,4.23 49.12,14.5 	"/>
	<g>
		<g>
			<g>
				<path class="st1" d="M86.83,6.49c-0.62,0-1.13-0.5-1.13-1.13c0-0.62,0.5-1.13,1.13-1.13c0.62,0,1.13,0.5,1.13,1.13
					C87.95,5.98,87.45,6.49,86.83,6.49L86.83,6.49z M86.83,4.44c-0.5,0-0.9,0.4-0.9,0.9c0,0.01,0,0.01,0,0.02
					c-0.03,0.5,0.34,0.93,0.84,0.96c0.5,0.03,0.93-0.34,0.96-0.84c0-0.04,0-0.08,0-0.12c0.01-0.5-0.38-0.91-0.88-0.92
					C86.84,4.44,86.83,4.44,86.83,4.44z M87.06,5.97l-0.25-0.48h-0.16v0.47h-0.22v-1.2h0.46c0.21,0,0.38,0.16,0.39,0.37
					c0,0.15-0.1,0.29-0.24,0.33l0.27,0.51H87.06z M86.86,4.94h-0.2V5.3h0.2c0.1,0.01,0.2-0.06,0.21-0.16
					c0.01-0.1-0.06-0.2-0.16-0.21C86.9,4.94,86.88,4.94,86.86,4.94z"/>
			</g>
		</g>
	</g>
</g>
</svg>
