<?xml version="1.0" encoding="utf-8"?>
<!-- Generator: Adobe Illustrator 25.4.1, SVG Export Plug-In . SVG Version: 6.00 Build 0)  -->
<svg version="1.1" id="Layer_1" xmlns="http://www.w3.org/2000/svg" xmlns:xlink="http://www.w3.org/1999/xlink" x="0px" y="0px"
	 viewBox="0 0 210 68" style="enable-background:new 0 0 210 68;" xml:space="preserve">
<style type="text/css">
	.st0{fill:#1072B9;}
	.st1{fill:#702C87;}
	.st2{fill:#AA3091;}
	.st3{fill:#D83287;}
	.st4{fill:#005397;}
</style>
<g>
	<path class="st0" d="M26.1,16.3h7.6c2.3,0,4.1-1.8,4.1-4.1V4.6c0-2.3-1.8-4.1-4.1-4.1h-7.6c-2.3,0-4.1,1.8-4.1,4.1v7.6
		C22,14.5,23.8,16.3,26.1,16.3z"/>
	<path class="st1" d="M18.6,20.2c0-2.5-2.1-4.6-4.6-4.6H5.5c-2.5,0-4.6,2.1-4.6,4.6v8.5c0,2.5,2.1,4.6,4.6,4.6H14
		c2.5,0,4.6-2.1,4.6-4.6V20.2z"/>
	<path class="st2" d="M13.2,40.2H8c-1.5,0-2.8,1.3-2.8,2.8v5.2C5.2,49.7,6.5,51,8,51h5.2c1.6,0,2.8-1.3,2.8-2.8V43
		C16,41.4,14.8,40.2,13.2,40.2z"/>
	<path class="st3" d="M27.2,54.7h-6.2c-1.8,0-3.3,1.5-3.3,3.3v6.2c0,1.8,1.5,3.3,3.3,3.3h6.2c1.8,0,3.3-1.5,3.3-3.3V58
		C30.5,56.2,29.1,54.7,27.2,54.7z"/>
	<path class="st3" d="M52.1,17.1v-4.3c0-1.3-1-2.3-2.3-2.3h-4.3c-1.3,0-2.3,1-2.3,2.3v4.3c0,1.3,1,2.3,2.3,2.3h4.3
		C51.1,19.4,52.1,18.4,52.1,17.1z"/>
	<path class="st4" d="M144.3,16.4c-1.4,0-2.5,1.1-2.5,2.5c0,1.4,1.1,2.5,2.5,2.5c1.4,0,2.5-1.1,2.5-2.5
		C146.8,17.5,145.7,16.4,144.3,16.4z"/>
	<path class="st4" d="M67.6,26.4c0-0.7-0.3-1.4-1-1.7c-0.3-0.2-0.7-0.3-1-0.3c-0.7,0-1.3,0.3-1.7,0.9l-4.7,7.4l-4.7-7.4
		c-0.4-0.6-1-0.9-1.7-0.9c-0.4,0-0.7,0.1-1,0.3c-0.6,0.3-1,1-1,1.7c0,0.3,0.1,0.7,0.3,1l5.7,9l-5.7,9c-0.2,0.3-0.3,0.6-0.3,1
		c0,0.7,0.4,1.4,0.9,1.8c0.3,0.2,0.8,0.3,1.1,0.3c0.7,0,1.3-0.3,1.7-0.9l4.7-7.3l4.7,7.3c0.4,0.6,1,0.9,1.7,0.9
		c0.4,0,0.8-0.1,1.1-0.3c0.5-0.3,0.9-1,0.9-1.8c0-0.3-0.1-0.7-0.3-1l-5.7-9l5.7-9C67.5,27.1,67.6,26.8,67.6,26.4z"/>
	<path class="st4" d="M83,24.1c-3.1,0-6,1.2-8.2,3.1v-1c0-1-1-1.9-2-1.9c-1,0-2,0.9-2,1.9V56c0,1,1,1.9,2,1.9c1.1,0,2-0.9,2-1.9
		V45.5c2.1,1.9,5,3.1,8.2,3.1c6.9,0,12.3-5.5,12.3-12.2C95.4,29.6,89.9,24.1,83,24.1z M83,44.6c-4.6,0-8.2-3.6-8.2-8.2
		c0-4.6,3.6-8.2,8.2-8.2c4.6,0,8.2,3.6,8.2,8.2C91.3,41,87.7,44.6,83,44.6z"/>
	<path class="st4" d="M136.3,24.1c-2.3,0-4.5,0.8-6.1,2c0-1-1-1.9-2-1.9c-1.1,0-2,0.9-2,1.9v20.3c0,1,1,1.9,2,1.9c1,0,2-0.9,2-1.9
		V34.2c0-4.8,2.9-5.9,6.1-6c1.2,0,2.2-1,2.2-2.1C138.6,25.1,137.6,24.1,136.3,24.1z"/>
	<path class="st4" d="M144.4,24.3c-1.1,0-2,0.9-2,1.9v20.3c0,1,1,1.9,2,1.9c1,0,2-0.9,2-1.9V26.2C146.4,25.2,145.4,24.3,144.4,24.3z
		"/>
	<path class="st4" d="M172.2,24.3c-1.1,0-2,0.9-2,1.9v1c-2.2-2-5-3.1-8.2-3.1c-6.9,0-12.3,5.5-12.3,12.2c0,6.8,5.5,12.3,12.3,12.3
		c3.1,0,6-1.2,8.2-3.1v1c0,1,0.9,1.9,2,1.9c1,0,2-0.9,2-1.9V26.2C174.2,25.2,173.2,24.3,172.2,24.3z M162,44.6
		c-4.6,0-8.2-3.6-8.2-8.2c0-4.6,3.6-8.2,8.2-8.2c4.6,0,8.2,3.6,8.2,8.2C170.2,40.9,166.6,44.6,162,44.6z"/>
	<path class="st4" d="M188.5,24.1c-2.4,0-4.6,0.7-6.3,2c0-1-1-1.9-2-1.9c-1.1,0-2,0.9-2,1.9v20.3c0,1,0.9,1.9,2,1.9c1,0,2-0.9,2-1.9
		V34.2c0-4.8,3-6.1,6.3-6.1c3.4,0,6.3,2.9,6.3,6.3v12.1c0,1,0.9,1.9,2,1.9c1,0,2-0.9,2-1.9V33.9C198.9,28.4,194,24.1,188.5,24.1z"/>
	<path class="st4" d="M37.4,24.1c-6.9,0-12.3,5.5-12.3,12.2c0,6.8,5.5,12.3,12.3,12.3c3.3,0,6.3-1.3,8.5-3.5c0.4-0.4,0.7-1,0.7-1.5
		c0-1.1-1-2-2-2c-0.6,0-1.2,0.4-1.6,0.8c-1.4,1.5-3.4,2.1-5.6,2.1c-4.1,0-7.4-2.8-8.1-6.7h18.4l0,0h0.1l0.1,0l0.2,0
		c0.9-0.2,1.6-1.1,1.6-2.1C49.6,29.4,44,24.1,37.4,24.1z M29.6,33.8c1-3.3,4.1-5.7,7.8-5.7c3.7,0,6.8,2.4,7.8,5.7H29.6z"/>
	<path class="st4" d="M110.5,24.1c-6.8,0-12.3,5.5-12.3,12.2c0,6.8,5.5,12.3,12.3,12.3c3.3,0,6.3-1.3,8.5-3.5c0.4-0.4,0.7-1,0.7-1.5
		c0-1.1-1-2-2-2c-0.6,0-1.2,0.4-1.6,0.8c-1.4,1.5-3.4,2.1-5.6,2.1c-4.1,0-7.4-2.8-8.1-6.7h18.3l0,0h0.1l0.2,0l0.1,0
		c0.9-0.2,1.7-1,1.7-2.1C122.6,29.4,117.1,24.1,110.5,24.1z M102.6,33.8c1-3.3,4.1-5.7,7.8-5.7c3.7,0,6.8,2.4,7.8,5.7H102.6z"/>
	<path class="st4" d="M204.3,44h-2.2c-0.2,0-0.3,0.1-0.3,0.3c0,0.2,0.1,0.3,0.3,0.3h0.8v3.4c0,0.2,0.2,0.3,0.3,0.3
		c0.2,0,0.3-0.1,0.3-0.3v-3.4h0.8c0.2,0,0.3-0.2,0.3-0.3C204.6,44.2,204.5,44,204.3,44z"/>
	<path class="st4" d="M208.6,44c-0.2,0-0.4,0.2-0.5,0.4l-1,2.8l-1-2.8c-0.1-0.2-0.3-0.4-0.5-0.4c-0.3,0-0.5,0.2-0.5,0.5v3.6
		c0,0.2,0.2,0.3,0.3,0.3c0.2,0,0.3-0.1,0.3-0.3v-2.7l1,2.8c0,0.1,0.1,0.3,0.3,0.3c0.1,0,0.3-0.1,0.3-0.3c0,0,0,0,0.4-1.1
		c0.2-0.5,0.4-1.2,0.6-1.7v2.7c0,0.2,0.2,0.3,0.3,0.3c0.2,0,0.3-0.1,0.3-0.3v-3.6C209.1,44.3,208.8,44,208.6,44z"/>
</g>
</svg>
