<?xml version="1.0" encoding="utf-8"?>
<!-- Generator: Adobe Illustrator 26.1.0, SVG Export Plug-In . SVG Version: 6.00 Build 0)  -->
<svg version="1.1" id="Layer_1" xmlns="http://www.w3.org/2000/svg" xmlns:xlink="http://www.w3.org/1999/xlink" x="0px" y="0px"
	 viewBox="0 0 803.1 294.3" style="enable-background:new 0 0 803.1 294.3;" xml:space="preserve">
<style type="text/css">
	.st0{display:none;}
	.st1{display:inline;fill:#EC008C;}
	.st2{display:inline;fill:none;stroke:#EC008C;stroke-miterlimit:10;}
	.st3{fill:#9F3130;}
	.st4{fill:#1E487C;}
	.st5{fill:#DD6B34;}
	.st6{fill:#E8996A;}
	.st7{fill:#F28636;}
	.st8{fill:#231F20;}
	.st9{fill:#F38534;}
</style>
<g id="Clear_space" class="st0">
	<path class="st1" d="M873.5,291l12.9,24.9c3.6,7.2,5.2,10.3,13.3,10.3h18.4c-1.1-0.8-2-2.5-3.9-5.9l-18.8-34.6l22-25.6h-19.6
		L873.5,291z"/>
	<path class="st1" d="M849.4,326.1h22.8v-79c0-8.2-6-13.5-14.3-13.5h-8.5V326.1z"/>
	<path class="st1" d="M839.2,320.1l-22.8-67.8c-2.7-8.1-5.5-11.8-16.7-11.8H789l-31.7,85.6h14.4l7.2-21.2h30.5l4.4,13.7
		c1.6,5,3.6,7.3,9.1,7.3H842C841.1,325,840.4,323.4,839.2,320.1z M782.4,294.5l12.3-35.8l11.4,35.8H782.4z"/>
	<path class="st1" d="M69.1,291L82,315.8c3.6,7.2,5.2,10.3,13.3,10.3h18.4c-1.1-0.8-2-2.5-3.9-5.9L91,285.6l22-25.6H93.5L69.1,291z"
		/>
	<path class="st1" d="M44.9,326.1h22.8v-79c0-8.2-6-13.5-14.3-13.5h-8.5C44.9,233.6,44.9,326.1,44.9,326.1z"/>
	<path class="st1" d="M34.8,320.1L12,252.3c-2.7-8.1-5.5-11.8-16.7-11.8h-10.8l-31.7,85.6h14.4l7.2-21.2H5l4.4,13.7
		c1.6,5,3.6,7.3,9.1,7.3h19.2C36.7,325,36,323.4,34.8,320.1z M-22,294.5l12.3-35.8l11.4,35.8H-22z"/>
	<path class="st1" d="M181.1,481.6l-22.8-67.8c-2.7-8.1-5.5-11.8-16.7-11.8h-10.8l-31.7,85.6h14.4l7.2-21.2h30.5l4.4,13.7
		c1.6,5,3.6,7.3,9.1,7.3H184C183,486.5,182.4,484.9,181.1,481.6z M124.3,456.1l12.3-35.8l11.4,35.8H124.3z"/>
	<path class="st1" d="M839.2-130.3l-22.8-67.8c-2.7-8.1-5.5-11.8-16.7-11.8H789l-31.7,85.6h14.4l7.2-21.2h30.5l4.4,13.7
		c1.6,5,3.6,7.3,9.1,7.3H842C841.1-125.4,840.4-127,839.2-130.3z M782.4-155.9l12.3-35.8l11.4,35.8
		C806.1-155.9,782.4-155.9,782.4-155.9z"/>
	<rect x="-47.2" y="-209.9" class="st2" width="964.7" height="697.3"/>
</g>
<g>
	<path class="st3" d="M157.8,117.7c-0.1,0.4-0.2,0.8-0.3,1.2c-0.3,0.5-0.6,1-0.8,1.6c-0.4,1.1-0.6,2.4-1.1,3.5
		c-1.8,4.1-3.6,8.2-5.7,12.1c-2.5,4.5-5.3,9-8.3,13.2c-4.9,7-10.6,13.2-16.9,18.9c-5.7,5.2-11.7,10-18.3,13.8
		c-3.8,2.2-7.8,3.9-11.7,5.9c0.6-3.9,1-7.9,1.9-11.8c3.6-16.6,9.3-32.6,15-48.6c1.7-4.7,0.1-8.3-4.4-9.8c-2.5-0.8-5.1-0.9-7.6-0.4
		c-3.7,0.6-6.8,2.6-9.9,4.5c-7.7,4.8-15,10.1-21.7,16.2c-1.7,1.6-3.1,3.5-4.6,5.2c-0.4,0.4-0.6,1-0.7,1.5c-0.5,1.8,0.5,3,2.3,2.7
		c1.1-0.2,2.2-0.7,3.2-1.2c3-1.5,6-2.9,9.4-3c3.6,0,5.3,1.5,5.7,5.1c0.6,5.4-0.3,10.6-1.2,15.9c-1.6,9.4-4.4,18.4-7.6,27.3
		c-0.2,0.4-0.4,0.8-0.6,1.3c-0.6,0-1.1-0.1-1.7-0.1c-6.8-0.1-13-1.8-18.5-6c-2.7-2.1-4.9-4.6-6.5-7.6c-1.9-3.6-3.3-7.3-3.6-11.4
		c-0.3-3-0.7-6.1-0.5-9.1c0.2-3.3,0.8-6.7,1.6-9.9c0.7-3.4,1.6-6.9,2.8-10.2c1.4-3.8,3-7.6,5-11.2c2.8-5.2,5.8-10.2,9.1-15.1
		c4.4-6.6,9.7-12.4,15.4-17.9c0.6-0.5,1.1-1,1.7-1.5c2.3-2,4.7-4,7-6c0.3-0.2,0.7-0.4,1-0.6c0.1-0.1,0.3-0.2,0.4-0.3h0.1
		c0.1-0.1,0.3-0.2,0.4-0.3h0.1c0.7-0.4,1.3-0.8,2-1.2c0.4-0.2,0.8-0.5,1.3-0.7c0.1-0.1,0.3-0.2,0.4-0.2h0.1c0.1-0.1,0.3-0.2,0.4-0.3
		l0.3-0.2c0.3-0.1,0.6-0.3,0.9-0.4h0.1c0.1-0.1,0.3-0.2,0.4-0.3h0.1c0.4-0.2,0.7-0.3,1.1-0.5h0.1c0.5-0.3,1.1-0.5,1.6-0.8h0.1
		c0.5-0.3,1.1-0.5,1.6-0.8h0.1c0.1-0.1,0.3-0.2,0.4-0.2s0.2-0.1,0.3-0.1c0.3-0.1,0.6-0.3,0.9-0.4c0.1,0,0.2-0.1,0.4-0.1
		c0.5-0.2,0.9-0.4,1.4-0.7c0.2-0.1,0.4-0.1,0.6-0.2c0.7-0.3,1.4-0.6,2.2-0.8h0.1c0.5-0.2,1-0.4,1.4-0.6c0.2,0,0.4-0.1,0.6-0.1h0.2
		h0.1c0.8-0.3,1.6-0.5,2.5-0.8h0.1c0.2-0.1,0.5-0.2,0.7-0.3c0.2,0,0.4-0.1,0.6-0.1c0.6-0.2,1.3-0.3,1.9-0.5h0.1
		c0.3-0.1,0.5-0.2,0.8-0.3c0.3,0,0.6-0.1,0.9-0.1c0.7-0.1,1.3-0.3,2-0.4c0.1,0,0.3,0,0.4-0.1c0.3-0.1,0.7-0.2,1-0.3
		c0.5,0,1-0.1,1.4-0.1c1.4-0.1,2.7-0.2,4.1-0.2c2.9,0,5.9,0.1,8.8,0.2c0.4,0,0.8,0.1,1.2,0.1c0.3,0.1,0.7,0.2,1,0.3h0.1
		c0.6,0.2,1.3,0.3,1.9,0.5c0.2,0,0.4,0.1,0.6,0.1c0.2,0.1,0.3,0.1,0.5,0.2h0.1h0.2c0.2,0,0.4,0.1,0.6,0.1c0.5,0.2,1.1,0.5,1.6,0.7
		h0.1c0.2,0.1,0.4,0.2,0.7,0.3c0.1,0.1,0.3,0.1,0.4,0.2c0.3,0.1,0.6,0.3,0.9,0.4c0.3,0.2,0.6,0.3,0.9,0.5c0.1,0.1,0.3,0.2,0.4,0.3
		c5.3,2.9,9,7.2,11.5,12.6c3.3,7,4.1,14.5,3.6,22.2c-0.1,1.9-0.4,3.8-0.6,5.6L157.8,117.7z M127.1,91.1c0-4.4-2.3-7.1-6-7.4
		c-1.1-0.1-2.3,0-3.4,0.2c-6,1.3-10.5,4.7-14.1,9.5c-2.1,2.8-3.6,5.8-4.1,9.3c-0.7,5.1,2.5,8.7,7.6,8.2c1.4-0.1,2.7-0.4,4-0.9
		c4.5-1.6,8.2-4.4,11.2-8.1C124.9,98.6,126.8,94.9,127.1,91.1z"/>
	<path class="st4" d="M467.7,214.8c0.7-2.8,1.4-5.3,2.1-7.8c3-10.8,5.9-21.6,8.9-32.4c2.6-9.5,5.2-19,7.8-28.5
		c0.3-0.9,0.7-1.2,1.7-1.2c15.8,0,31.6,0,47.3,0.1c4,0,8,0.2,11.8,1.7c4.7,1.8,7.2,6,6.6,11.1c-0.9,8.7-5.7,14.4-13.6,17.6
		c-1.7,0.7-3.5,1.3-5.6,2.1c0.5,0.2,0.7,0.4,1,0.5c2.3,1,4.8,1.8,7,3.2c3.6,2.2,5.1,5.8,4.8,9.9c-0.6,6.8-3.1,12.8-8.3,17.5
		c-3.7,3.3-8.1,5.1-13,5.8c-2.5,0.4-5.1,0.6-7.7,0.6c-16.4,0-32.8,0-49.2,0C468.9,214.8,468.4,214.8,467.7,214.8z M506.7,159
		l-0.3,0.2c-1.3,4.7-2.6,9.5-3.8,14.2c0.3,0.1,0.4,0.2,0.5,0.2c4.9,0,9.8,0.2,14.7-0.1c4-0.2,7.1-2.2,8.6-6.2s0.6-7.1-3.9-8
		l-0.2-0.1c-0.4-0.1-0.8-0.4-1.3-0.4c-4.4,0-8.9,0-13.3,0C507.3,158.7,507,158.9,506.7,159L506.7,159z M495.1,200.4
		c6.3,0,12.3,0.2,18.2-0.1c3.8-0.2,7-2.1,8.7-5.8c2.2-5,0.5-8.6-5-9c-5.6-0.4-11.3-0.3-17-0.3c-0.3,0-0.9,0.5-1,0.9
		c-0.8,2.5-1.5,5.1-2.2,7.7C496.3,196,495.7,198.2,495.1,200.4z"/>
	<path class="st4" d="M284.5,188.5c-1.4,2.6-2.6,5.3-4.2,7.8c-4.9,7.7-12,12.5-20.6,15.2c-10.3,3.2-20.9,3.9-31.7,3.3
		c-5.3-0.3-10.5-1.3-15.4-3.4c-10.1-4.4-15.2-13.5-13.6-24.4c1.5-10.8,5.7-20.4,13.3-28.3c6.8-7.1,15.3-11.4,24.8-13.7
		c10.2-2.5,20.5-2.7,30.8-1.3c4,0.5,7.8,1.6,11.4,3.4c7.2,3.7,10.5,10.2,9.2,18.2c-0.3,2.1-0.3,2.1-2.6,2.1c-7.3,0-14.6,0-21.9,0
		c-0.9,0-1.5-0.1-1.5-1.3c0.3-5.8-3.8-8.4-8.7-8.8c-13.9-1.1-22.9,7.1-26.9,18.3c-1.2,3.3-2,6.8-2.4,10.2
		c-0.7,6.5,1.8,12.2,8.8,14.1c3.2,0.9,6.5,0.9,9.8,0.4c7-1.1,12-4.9,15.1-11.3c0.2-0.4,0.8-0.9,1.2-0.9c8.1-0.1,16.3,0,24.4,0
		C284.1,188.3,284.3,188.4,284.5,188.5z"/>
	<path class="st4" d="M409.9,188.4c-1.2,2.4-2.2,4.7-3.5,6.8c-5,8.3-12.4,13.5-21.6,16.4c-10.3,3.2-20.8,3.9-31.5,3.2
		c-5.4-0.3-10.6-1.3-15.5-3.5c-7.3-3.3-12.1-8.7-13.4-16.7c-0.7-4.7-0.1-9.3,1.1-13.8c3.5-13,10.7-23.2,22.4-30
		c6.7-3.9,14-6.1,21.7-7.1c6.6-0.9,13.3-1,20-0.3c5.4,0.5,10.8,1.5,15.6,4.2c6.8,3.7,9.8,9.8,8.7,17.4c-0.4,2.9,0,2.6-3.1,2.6
		c-7.1,0-14.2,0-21.3,0c-0.9,0-1.5-0.1-1.5-1.3c-0.1-5.4-3.2-8.4-8.6-8.9c-13.5-1.1-22.5,6.5-26.8,17.8c-1.5,3.8-2.6,7.7-2.6,11.8
		c-0.1,8,3.1,12.2,10.9,13.5c6.4,1.1,12.5,0,17.7-4.4c2.2-1.9,3.8-4.3,5.1-6.8c0.2-0.4,0.9-0.9,1.3-0.9c8-0.1,15.9,0,23.9,0
		C409.2,188.2,409.3,188.2,409.9,188.4z"/>
	<path class="st4" d="M776,166.2c-2.5,2.1-4.6,3.9-6.7,5.7c-5.9,5-11.9,10-17.8,15c-0.9,0.8-0.9,1.3-0.3,2.2c5.3,8,10.5,16,15.7,24
		c0.3,0.5,0.6,0.9,1,1.6c-0.7,0.1-1.1,0.1-1.6,0.1c-8.6,0-17.3,0-25.9,0c-1,0-1.6-0.3-2.1-1.2c-4.3-7.2-8.6-14.5-12.9-21.7
		c-0.2-0.4-0.5-0.8-1-1.5c-0.5,1.6-0.9,3-1.3,4.4c-1.7,6.4-3.5,12.7-5.2,19.1c-0.1,0.4-0.7,0.9-1,0.9c-7.2,0-14.4,0-21.6,0
		c-0.1,0-0.3-0.1-0.5-0.2c1.1-3.9,2.1-7.8,3.2-11.7c3.5-12.9,7-25.8,10.6-38.7c1.7-6.2,3.4-12.4,5.1-18.6c0.1-0.3,0.6-0.8,0.9-0.8
		c7.3,0,14.6,0,21.9,0c0,0,0.1,0,0.3,0.1c-3.7,13.4-7.3,26.8-11,40.3l0.2,0.2c0.5-0.4,1.1-0.8,1.6-1.3c6.5-5.6,13.1-11.2,19.6-16.8
		c1.1-1,2.2-1.4,3.7-1.4c7.8,0.1,15.5,0,23.3,0C774.6,166.1,775.1,166.1,776,166.2z"/>
	<path class="st4" d="M611.1,214.8c-1.5,0-3,0-4.4,0c-5.2,0-10.4,0-15.6,0c-1,0-1.5-0.3-1.4-1.4c0.2-1.7,0.3-3.5,0.5-5.4
		c-0.3,0.2-0.5,0.3-0.7,0.4c-5.7,4.9-12.6,7-20,7.3c-5.2,0.3-10.4,0.1-15.3-1.9c-5.7-2.3-7.8-7-5.8-12.9c2-6.1,6.4-9.7,12.1-12.1
		c5.3-2.2,10.9-3.2,16.5-3.7c6.1-0.5,12.2-0.8,18.3-1c1,0,1.5-0.3,1.8-1.4c1.1-4.2-0.5-6.5-4.7-7.2c-3.2-0.5-6.4-0.4-9.2,1.1
		c-1.4,0.7-2.4,2.2-3.7,3.2c-0.4,0.3-0.9,0.8-1.3,0.8c-6.7,0.1-13.4,0-20,0c-0.1,0-0.3-0.1-0.7-0.2c0.8-1.6,1.5-3.3,2.5-4.8
		c3.2-4.7,8.1-7.2,13.4-8.6c10.9-2.9,22.1-3.1,33.2-1.3c2.4,0.4,4.9,1.3,7.1,2.5c5,2.5,7.2,7.2,5.9,12.6c-1.4,6-3.1,12-4.7,17.9
		c-1,3.7-2.1,7.4-3,11.2C611.3,211.6,611.3,213.1,611.1,214.8z M593.6,193.6c-5.8,0.1-11.5-0.1-16.9,1.9c-1.8,0.7-3.2,1.9-4,3.7
		c-1.2,2.7-0.2,5.2,2.7,5.6c2.4,0.4,5,0.4,7.5,0C588.5,203.9,592.9,199.3,593.6,193.6z"/>
	<path class="st4" d="M632,166.1c0.2,0,0.6-0.1,1.1-0.1c6.8,0,13.5,0,20.3,0c1.3,0,1.7,0.4,1.5,1.6c-0.3,1.4-0.5,2.8-0.7,4.2
		c-0.1,0.5-0.2,1-0.3,1.8c1.8-1.2,3.3-2.3,4.8-3.3c8.2-5.2,17-6.7,26.4-4.5c6.2,1.4,9.9,6.2,10.1,12.5c0.1,3.7-0.8,7.3-1.8,10.8
		c-2.2,8.2-4.5,16.3-6.7,24.5c-0.2,0.7-0.3,1.1-1.2,1.1c-7.2,0-14.4,0-21.6,0c-0.2,0-0.4-0.1-0.7-0.2c0.9-3.2,1.7-6.3,2.6-9.5
		c1.7-6.3,3.4-12.6,5.1-18.9c0.3-1.2,0.4-2.5,0.4-3.8c-0.1-3.3-2.1-5.2-5.8-5.4c-7.4-0.4-12.7,3.1-15.3,10.6
		c-1.8,5.4-3.2,10.9-4.7,16.4c-0.9,3.2-1.7,6.5-2.7,9.8c-0.1,0.4-0.8,1-1.2,1c-7.2,0.1-14.3,0-21.5,0c-0.2,0-0.4-0.1-0.7-0.1
		C623.3,198.4,628.6,182.6,632,166.1z"/>
	<path class="st5" d="M76.7,94.2c-5.7,5.5-11,11.3-15.4,17.9c-3.3,4.9-6.3,10-9.1,15.1c-1.9,3.6-3.6,7.4-5,11.2
		c-1.2,3.3-2,6.8-2.8,10.2c-0.7,3.3-1.4,6.6-1.6,9.9c-0.2,3,0.3,6,0.5,9.1c0.3,4.1,1.7,7.8,3.6,11.4c1.6,3,3.8,5.5,6.5,7.6
		c5.4,4.2,11.7,5.9,18.5,6c0.6,0,1.1,0.1,1.7,0.1c-0.9,2.3-1.7,4.6-2.8,6.8c-1.7,3.7-3.8,7.3-6.5,10.4c-3.5,4.1-7.8,5.3-12.9,4
		c-6.3-1.5-11.8-4.3-16.1-9.2c-3.1-3.5-5.1-7.6-6.5-12.1c-2-6.4-2-13.1-1.5-19.6c0.3-3.9,1.2-7.7,2.2-11.5c1-4.1,2.3-8.1,3.8-12
		c1.3-3.4,2.7-6.7,4.4-9.8c2.6-4.8,5.3-9.4,8.3-14c2.5-3.8,5.3-7.3,8-10.9c0.4-0.6,1-1.1,1.4-1.7c1.1-0.2,1.6-1,1.7-2l0,0
		c0.9-1,1.7-1.9,2.6-2.9l0,0c0.3-0.3,0.6-0.6,0.8-0.9l0,0c0.3-0.3,0.6-0.6,0.8-0.9l0.1-0.2c1.1-1.1,2.3-2.3,3.4-3.4l0,0
		c0.3-0.3,0.6-0.5,0.8-0.8l0,0c0.2-0.2,0.5-0.4,0.7-0.7l0,0c0.3-0.3,0.6-0.6,0.9-0.8l0,0c1.4-1.2,2.7-2.4,4.1-3.6l0,0
		c1.4-1.1,2.8-2.3,4.2-3.4l0,0C76.2,93.7,76.4,94,76.7,94.2z"/>
	<path class="st4" d="M158.6,214.5c0.8-3.1,1.7-6.2,2.5-9.4c2.2-8.3,4.5-16.6,6.7-24.9c3.1-11.4,6.3-22.9,9.5-34.3
		c0.1-0.4,0.8-1.1,1.2-1.1c7.7-0.1,15.4,0,23.2,0c0.2,0,0.4,0.1,0.7,0.1c-1,3.7-2,7.4-3,11c-3.5,12.8-7,25.6-10.5,38.3
		c-1.8,6.4-3.5,12.8-5.3,19.2c-0.1,0.5-0.8,1.1-1.2,1.1c-7.8,0.1-15.5,0-23.3,0C159,214.7,158.9,214.7,158.6,214.5z"/>
	<path class="st4" d="M428.6,144.9c8.3,0,16.5,0,24.8,0c-1.1,4-2.1,7.9-3.2,11.8c-2.8,10.2-5.6,20.4-8.4,30.6
		c-2.4,8.8-4.8,17.6-7.3,26.4c-0.1,0.4-0.8,1-1.2,1c-7.6,0.1-15.3,0-22.9,0c-0.2,0-0.5-0.1-0.9-0.2
		C415.9,191.3,422.2,168.2,428.6,144.9z"/>
	<path class="st4" d="M327.8,145.1c-0.8,3-1.6,5.9-2.4,8.9c-3.2,11.8-6.5,23.7-9.7,35.5c-2.2,8-4.4,16-6.6,24.1
		c-0.2,0.8-0.5,1.2-1.4,1.2c-7.5,0-15.1,0-22.6,0c-0.3,0-0.6-0.1-1-0.1c1.1-4,2.2-7.9,3.2-11.8c3.5-12.9,7-25.8,10.5-38.7
		c1.7-6.1,3.4-12.3,5.1-18.4c0.1-0.4,0.6-0.9,1-0.9c7.9,0,15.7,0,23.6,0C327.5,144.9,327.6,145,327.8,145.1z"/>
	<path class="st5" d="M94.6,187.9c3.9-1.9,7.9-3.7,11.7-5.9c6.7-3.8,12.7-8.6,18.3-13.8c6.3-5.7,12-12,16.9-18.9
		c3-4.3,5.8-8.7,8.3-13.2c2.2-3.9,3.9-8,5.7-12.1c0.5-1.1,0.7-2.3,1.1-3.5c0.2-0.6,0.6-1.1,0.8-1.6c-0.3,2.2-0.5,4.4-1.1,6.6
		c-1.3,4.4-2.5,8.8-4.3,12.9c-2.6,5.9-5.4,11.6-8.6,17.2c-3.6,6.4-8,12.3-12.7,17.9c-6.5,7.7-13.6,14.8-21.6,21
		c-2.1,1.6-4.3,3.2-6.5,4.8c-3.2,2.3-7.1,0.8-7.8-3.1C94.4,193.5,94.1,190.7,94.6,187.9z"/>
	<path class="st6" d="M76.7,94.2c-0.2-0.2-0.5-0.5-0.7-0.7c1.2-1,2.3-2.1,3.5-3c1.9-1.3,3.9-2.6,5.9-3.8c-2.3,2-4.7,4-7,6
		C77.8,93.2,77.2,93.7,76.7,94.2z M77.5,93.1L77.5,93.1h-0.3l0.1,0.1L77.5,93.1z"/>
	<path class="st6" d="M132,73.4c-2.9-0.1-5.9-0.2-8.8-0.2c-1.4,0-2.7,0.1-4.1,0.2c0.1-0.1,0.3-0.3,0.4-0.3c4,0,8,0,12.1,0
		C131.7,73,131.9,73.2,132,73.4z"/>
	<path class="st6" d="M75.9,93.5c-1.4,1.1-2.8,2.3-4.2,3.4C73.1,95.8,74.5,94.7,75.9,93.5z"/>
	<path class="st6" d="M71.7,97c-1.4,1.2-2.7,2.4-4.1,3.6C69,99.4,70.3,98.2,71.7,97z"/>
	<path class="st6" d="M65.1,103c-1.1,1.1-2.3,2.3-3.4,3.4C62.8,105.2,64,104.1,65.1,103z"/>
	<path class="st6" d="M59.9,108.3c-0.9,1-1.7,1.9-2.6,2.9C58.2,110.3,59,109.3,59.9,108.3z"/>
	<path class="st6" d="M57.3,111.2c-0.2,1-0.7,1.8-1.7,2C56.2,112.5,56.7,111.9,57.3,111.2z"/>
	<path class="st6" d="M109.1,75.5c-0.8,0.3-1.6,0.5-2.5,0.8C107.4,76.1,108.3,75.8,109.1,75.5z"/>
	<path class="st6" d="M89.4,84.2c-0.7,0.4-1.3,0.8-2,1.2C88.1,85,88.7,84.6,89.4,84.2z"/>
	<path class="st6" d="M104.2,77.2c-0.7,0.3-1.4,0.6-2.2,0.8C102.7,77.8,103.5,77.5,104.2,77.2z"/>
	<path class="st6" d="M112.5,74.6c-0.6,0.2-1.3,0.3-1.9,0.5C111.2,74.9,111.8,74.8,112.5,74.6z"/>
	<path class="st6" d="M96.2,80.6c-0.5,0.3-1.1,0.5-1.6,0.8C95.1,81.2,95.6,80.9,96.2,80.6z"/>
	<path class="st6" d="M97.9,79.8c-0.5,0.3-1.1,0.5-1.6,0.8C96.8,80.3,97.4,80.1,97.9,79.8z"/>
	<path class="st6" d="M139.9,75.5c-0.5-0.2-1.1-0.5-1.6-0.7C138.8,75,139.4,75.3,139.9,75.5z"/>
	<path class="st6" d="M136.3,74.2c-0.6-0.2-1.3-0.3-1.9-0.5C135,73.9,135.7,74.1,136.3,74.2z"/>
	<path class="st6" d="M116.2,73.8c-0.7,0.1-1.3,0.3-2,0.4C114.9,74.1,115.6,73.9,116.2,73.8z"/>
	<path class="st6" d="M101.4,78.2c-0.5,0.2-0.9,0.4-1.4,0.7C100.5,78.7,100.9,78.4,101.4,78.2z"/>
	<path class="st6" d="M105.7,76.6c-0.5,0.2-1,0.4-1.4,0.6C104.8,77,105.3,76.8,105.7,76.6z"/>
	<path class="st6" d="M117.7,73.5c-0.3,0.1-0.7,0.2-1,0.3C117,73.7,117.3,73.6,117.7,73.5z"/>
	<path class="st6" d="M65.9,102.1c-0.3,0.3-0.6,0.5-0.8,0.8C65.4,102.7,65.7,102.4,65.9,102.1z"/>
	<path class="st6" d="M134.2,73.8c-0.3-0.1-0.7-0.2-1-0.3C133.6,73.6,133.9,73.7,134.2,73.8z"/>
	<path class="st6" d="M67.6,100.6c-0.3,0.3-0.6,0.6-0.9,0.8C67,101.2,67.3,100.9,67.6,100.6z"/>
	<path class="st6" d="M61.6,106.6c-0.3,0.3-0.6,0.6-0.8,0.9C61,107.2,61.3,106.9,61.6,106.6z"/>
	<path class="st6" d="M60.7,107.5c-0.3,0.3-0.6,0.6-0.8,0.9C60.2,108,60.4,107.8,60.7,107.5z"/>
	<path class="st6" d="M94.5,81.5c-0.4,0.2-0.7,0.3-1.1,0.5C93.8,81.8,94.1,81.7,94.5,81.5z"/>
	<path class="st6" d="M66.7,101.4c-0.2,0.2-0.5,0.4-0.7,0.7C66.2,101.9,66.5,101.7,66.7,101.4z"/>
	<path class="st6" d="M142.1,76.4c-0.3-0.1-0.6-0.3-0.9-0.4C141.5,76.1,141.8,76.3,142.1,76.4z"/>
	<path class="st6" d="M113.4,74.3c-0.3,0.1-0.5,0.2-0.8,0.3C112.9,74.5,113.1,74.4,113.4,74.3z"/>
	<path class="st6" d="M92.8,82.4c-0.3,0.1-0.6,0.3-0.9,0.4C92.2,82.7,92.5,82.5,92.8,82.4z"/>
	<path class="st6" d="M99.6,79c-0.3,0.1-0.6,0.3-0.9,0.4C99.1,79.2,99.4,79.1,99.6,79z"/>
	<path class="st6" d="M109.9,75.2c-0.2,0.1-0.5,0.2-0.7,0.3C109.5,75.4,109.7,75.3,109.9,75.2z"/>
	<path class="st6" d="M137.4,74.6c-0.2-0.1-0.3-0.1-0.5-0.2C137.1,74.5,137.2,74.5,137.4,74.6z"/>
	<path class="st6" d="M140.7,75.8c-0.2-0.1-0.5-0.2-0.7-0.3C140.3,75.6,140.5,75.7,140.7,75.8z"/>
	<path class="st6" d="M86.8,85.8c-0.1,0.1-0.3,0.2-0.4,0.3C86.5,86,86.7,85.9,86.8,85.8z"/>
	<path class="st6" d="M87.3,85.5c-0.1,0.1-0.3,0.2-0.4,0.3C87,85.7,87.2,85.6,87.3,85.5z"/>
	<path class="st6" d="M91.1,83.3c-0.1,0.1-0.3,0.2-0.4,0.2C90.8,83.4,90.9,83.4,91.1,83.3z"/>
	<path class="st6" d="M91.6,83c-0.1,0.1-0.3,0.2-0.4,0.3C91.3,83.1,91.5,83.1,91.6,83z"/>
	<path class="st6" d="M93.3,82.1c-0.1,0.1-0.3,0.2-0.4,0.3C93,82.2,93.2,82.1,93.3,82.1z"/>
	<path class="st6" d="M98.5,79.5c-0.1,0.1-0.3,0.2-0.4,0.2C98.2,79.7,98.3,79.6,98.5,79.5z"/>
	<path class="st6" d="M143.4,77.2c-0.1-0.1-0.3-0.2-0.4-0.3C143.1,77,143.2,77.1,143.4,77.2z"/>
	<polygon class="st7" points="157.8,117.7 157.8,117.6 157.9,117.7 	"/>
	<path class="st6" d="M106.5,76.4h-0.2H106.5z"/>
	<polygon class="st6" points="137.7,74.7 137.5,74.6 137.6,74.6 	"/>
	<path class="st8" d="M522.3,159.1c-5.2,0-10.4-0.1-15.6-0.1c0.3-0.1,0.7-0.3,1-0.3c4.4,0,8.9,0,13.3,0
		C521.4,158.7,521.8,158.9,522.3,159.1z"/>
	<path class="st8" d="M506.7,159l-0.3,0.2L506.7,159z"/>
	<polygon class="st9" points="77.5,93.1 77.3,93.2 77.2,93.1 77.4,93 	"/>
</g>
</svg>
